<svg width="215" height="24" viewBox="0 0 215 24" fill="none" xmlns="http://www.w3.org/2000/svg">
<path d="M30.6849 0H1.80631C0.808711 0 0 0.808711 0 1.80631V21.3144C0 22.312 0.808711 23.1207 1.80631 23.1207H30.6849C31.6825 23.1207 32.4912 22.312 32.4912 21.3144V1.80631C32.4912 0.808711 31.6825 0 30.6849 0Z" fill="#0071BC"/>
<path d="M13.7614 11.6272C13.7604 10.6444 13.9825 9.67415 14.4109 8.78958C14.8392 7.90501 15.4628 7.12918 16.2344 6.52051C15.2744 5.76006 14.1195 5.28557 12.9021 5.15145C11.6847 5.01733 10.4542 5.22901 9.35165 5.76222C8.24908 6.29543 7.3191 7.12858 6.66836 8.16612C6.01762 9.20367 5.67245 10.4036 5.67245 11.6283C5.67245 12.8531 6.01762 14.053 6.66836 15.0906C7.3191 16.1281 8.24908 16.9613 9.35165 17.4945C10.4542 18.0277 11.6847 18.2394 12.9021 18.1052C14.1195 17.9711 15.2744 17.4966 16.2344 16.7362C15.4626 16.1272 14.839 15.3509 14.4106 14.466C13.9822 13.581 13.7602 12.6104 13.7614 11.6272Z" fill="#E71B26"/>
<path d="M16.2343 16.7362C17.6002 16.7362 18.7074 14.4489 18.7074 11.6273C18.7074 8.80571 17.6002 6.51836 16.2343 6.51836C14.8685 6.51836 13.7613 8.80571 13.7613 11.6273C13.7613 14.4489 14.8685 16.7362 16.2343 16.7362Z" fill="#F36523"/>
<path d="M20.2751 5.11343C18.8075 5.1104 17.3826 5.60662 16.2343 6.52057C17.0053 7.13014 17.6282 7.90632 18.0565 8.79092C18.4848 9.67551 18.7072 10.6456 18.7072 11.6284C18.7072 12.6112 18.4848 13.5813 18.0565 14.4659C17.6282 15.3505 17.0053 16.1267 16.2343 16.7362C17.0494 17.3809 18.0069 17.8212 19.0269 18.0204C20.0468 18.2196 21.0996 18.1718 22.0973 17.8811C23.0951 17.5904 24.0087 17.0652 24.7621 16.3494C25.5155 15.6336 26.0866 14.7479 26.4279 13.7663C26.7691 12.7847 26.8706 11.7357 26.7238 10.7069C26.5769 9.67816 26.1861 8.69944 25.5839 7.85251C24.9816 7.00558 24.1855 6.31503 23.262 5.83853C22.3385 5.36203 21.3143 5.11341 20.2751 5.11343Z" fill="#FA9F1B"/>
<path d="M76.2882 0H47.4096C46.412 0 45.6033 0.808711 45.6033 1.80631V21.3144C45.6033 22.312 46.412 23.1207 47.4096 23.1207H76.2882C77.2858 23.1207 78.0945 22.312 78.0945 21.3144V1.80631C78.0945 0.808711 77.2858 0 76.2882 0Z" fill="#CCCCCC"/>
<path d="M63.2608 18.1433C66.8288 18.1589 70.0734 15.2443 70.0734 11.6763C70.0734 7.78941 66.8221 5.10225 63.2608 5.10448H60.1967C56.5908 5.11117 53.6316 7.80502 53.6316 11.6852C53.6316 15.2399 56.5975 18.1522 60.2034 18.1522L63.2608 18.1433Z" fill="#004A98"/>
<path d="M61.5632 15.144V8.08826C62.2772 8.36164 62.8915 8.84523 63.3248 9.47513C63.7581 10.105 63.9901 10.8516 63.9901 11.6161C63.9901 12.3807 63.7581 13.1272 63.3248 13.7571C62.8915 14.387 62.2772 14.8706 61.5632 15.144ZM56.4342 11.6161C56.4357 10.8526 56.6677 10.1073 57.0998 9.47783C57.5319 8.84835 58.144 8.36402 58.856 8.08826V15.144C58.1432 14.8689 57.5301 14.3849 57.0972 13.7554C56.6642 13.1258 56.4316 12.3802 56.4298 11.6161H56.4342ZM60.2208 5.65086C59.0405 5.64865 57.8861 5.99663 56.9036 6.65076C55.9212 7.30489 55.1548 8.23577 54.7016 9.32558C54.2484 10.4154 54.1287 11.6152 54.3576 12.773C54.5865 13.9309 55.1538 14.9949 55.9876 15.8302C56.8214 16.6656 57.8843 17.2349 59.0418 17.4659C60.1992 17.697 61.3992 17.5795 62.4899 17.1284C63.5805 16.6772 64.5128 15.9126 65.1688 14.9314C65.8248 13.9502 66.1749 12.7964 66.1749 11.6161C66.1749 10.034 65.5464 8.51675 64.4277 7.39804C63.309 6.27934 61.7917 5.65086 60.2096 5.65086" fill="white"/>
<path d="M121.899 0H93.0205C92.0229 0 91.2142 0.808711 91.2142 1.80631V21.3144C91.2142 22.312 92.0229 23.1207 93.0205 23.1207H121.899C122.897 23.1207 123.705 22.312 123.705 21.3144V1.80631C123.705 0.808711 122.897 0 121.899 0Z" fill="#016FD0"/>
<path d="M107.457 8.338C107.457 7.94329 107.071 7.90984 106.908 7.90984H105.943V8.70818H106.777C106.958 8.70818 107.457 8.73271 107.457 8.338Z" fill="white"/>
<path d="M114.776 7.98122L114.261 9.29246H115.307L114.776 7.98122Z" fill="white"/>
<path d="M92.9716 9.24338H94.0108L93.5091 7.96782L92.9716 9.24338Z" fill="white"/>
<path d="M122.374 17.9181H120.498V17.0261H122.371C122.547 17.0261 122.817 16.9569 122.817 16.696C122.817 16.4351 122.572 16.3972 122.411 16.3972C122.155 16.3972 121.965 16.3972 121.47 16.3972C120.975 16.3972 120.355 16.1341 120.355 15.1997C120.355 14.6377 120.801 14.0468 121.774 14.0468H123.714V13.2774H104.074L103.526 14.0044L102.981 13.2774H97.3618V18.6785H102.986L103.499 17.9381L103.996 18.6785H107.441V17.4074H107.738C108.101 17.4456 108.468 17.3911 108.804 17.2491V18.6763H111.108V17.8021L111.799 18.6763H122.469C123.419 18.6763 123.725 18.2437 123.725 18.2437V17.171C123.542 17.6594 123.096 17.9181 122.374 17.9181ZM101.333 14.921H99.1815V15.552H101.271V16.3415H99.1815V17.0283H101.333V17.9203H98.198V14.049H101.333V14.921ZM105.624 17.9181H104.391L103.517 16.6358L102.6 17.9181H101.414L102.95 15.9757L101.414 14.049H102.625L103.517 15.2577L104.451 14.049H105.642L104.065 15.9891L105.624 17.9181ZM107.961 16.6202H106.699V17.9181H105.727V14.049H107.807C108.342 14.049 109.172 14.3032 109.172 15.3246C109.184 15.4906 109.161 15.6572 109.105 15.814C109.05 15.9709 108.962 16.1146 108.849 16.2361C108.735 16.3577 108.598 16.4546 108.445 16.5206C108.292 16.5867 108.127 16.6206 107.961 16.6202ZM112.08 17.9181L110.925 16.502H110.577V17.9158H109.589V14.049H111.748C111.92 14.0401 112.093 14.0675 112.255 14.1295C112.417 14.1915 112.563 14.2868 112.686 14.4091C112.808 14.5314 112.904 14.6781 112.966 14.8396C113.029 15.0012 113.056 15.174 113.048 15.3469C113.048 15.9869 112.64 16.2969 112.073 16.502L113.284 17.9181H112.08ZM116.573 17.9181H113.418V14.049H116.562V14.941H114.415V15.5565H116.506V16.3794H114.399V17.0328H116.569L116.573 17.9181ZM118.859 17.9181H116.986V17.0261H118.859C119.035 17.0261 119.305 16.9569 119.305 16.696C119.305 16.4351 119.06 16.3972 118.897 16.3972C118.643 16.3972 118.451 16.3972 117.956 16.3972C117.461 16.3972 116.852 16.1341 116.852 15.1997C116.852 14.6377 117.298 14.0468 118.27 14.0468H120.206L119.805 14.9388H118.154C118.07 14.9388 117.818 15.0168 117.818 15.2465C117.817 15.3244 117.847 15.3995 117.9 15.4566C117.953 15.5137 118.025 15.5486 118.103 15.5543L119.267 15.5677C119.406 15.5691 119.543 15.5982 119.671 15.6534C119.798 15.7087 119.913 15.7888 120.009 15.8892C120.105 15.9895 120.18 16.1081 120.23 16.2378C120.279 16.3676 120.302 16.5059 120.297 16.6447C120.3 17.4765 119.793 17.9181 118.859 17.9181Z" fill="white"/>
<path d="M106.487 11.6741V10.8289L107.156 11.6741H110.544V11.2125C110.852 11.5492 111.367 11.6741 112.027 11.6741H114.125L114.484 10.878H115.1L115.452 11.6741H118.744V10.7219L119.368 11.6741H121.707V6.2775H119.306V7.28769L118.654 6.2775H116.444V7.6378L115.849 6.2775H112.281C111.197 6.2775 110.807 6.612 110.522 6.80824V6.2775H98.6958L98.2721 7.29215L97.8796 6.2775H95.188V7.7047L94.5815 6.2775H92.3894L91.2075 8.96019V11.6741H92.7863L93.1431 10.8579L93.8255 10.8958L94.1801 11.712L99.3091 11.6763L106.487 11.6741ZM118.382 7.04462L119.908 9.45526V7.04462H120.902V10.9137H119.72L118.135 8.46067V10.9137H117.149V7.04462H118.382ZM115.41 7.04462L117.062 10.9137H115.996L115.637 10.1064H113.909L113.559 10.9137H112.526L114.177 7.04462H115.41ZM112.17 7.04462H113.206V7.98122H112.19C112.057 7.97201 111.924 7.99163 111.8 8.03872C111.676 8.08581 111.563 8.15926 111.47 8.254C111.377 8.34874 111.306 8.46253 111.261 8.58753C111.216 8.71252 111.199 8.84575 111.211 8.97803C111.211 9.90795 111.866 10.093 112.103 10.093H112.493L112.103 10.9137C111.048 10.9137 110.267 10.3116 110.267 9.00925C110.267 7.95446 110.832 7.04462 112.17 7.04462ZM108.825 7.04462H109.77V10.9137H108.825V7.04462ZM106.748 7.04462C108.336 7.04462 108.416 7.88979 108.416 8.32018C108.423 8.60933 108.322 8.89067 108.135 9.11095C107.948 9.33123 107.686 9.47515 107.4 9.51547L108.673 10.9137H107.487L106.291 9.54892H105.95V10.9137H104.967L104.955 7.04462H106.748ZM101.309 7.04462H104.402V7.92101H102.237V8.54764H104.349V9.34153H102.237V10.0574H104.402V10.9137H101.312L101.309 7.04462ZM94.7086 10.9137L94.354 10.1153H92.6347L92.2756 10.9137H91.2186L92.8688 7.08699H94.1265L95.7901 10.9137H94.7086ZM97.8306 10.9137L96.8561 8.13732V10.9137H95.8593V7.09814H97.3957L98.2877 9.53554L99.1329 7.0357H100.652V10.9137H99.7127L99.6815 8.09272L98.6735 10.9137H97.8306Z" fill="white"/>
<path d="M111.679 14.9076H110.564V15.7171H111.701C111.805 15.7131 111.904 15.6688 111.977 15.5936C112.05 15.5184 112.091 15.4181 112.091 15.3135C112.094 15.2589 112.085 15.2044 112.065 15.1535C112.045 15.1026 112.015 15.0565 111.976 15.0182C111.937 14.9799 111.89 14.9502 111.839 14.9312C111.788 14.9121 111.733 14.9041 111.679 14.9076Z" fill="white"/>
<path d="M107.76 14.9076H106.685V15.8331H107.76C107.822 15.8359 107.884 15.8258 107.942 15.8034C108 15.781 108.052 15.7468 108.096 15.7029C108.14 15.6591 108.174 15.6065 108.197 15.5487C108.219 15.4909 108.229 15.429 108.226 15.367C108.228 15.3056 108.217 15.2444 108.195 15.1874C108.172 15.1304 108.137 15.0787 108.094 15.0355C108.05 14.9924 107.998 14.9588 107.94 14.9368C107.883 14.9148 107.822 14.9048 107.76 14.9076Z" fill="white"/>
<path d="M121.67 14.9411C121.587 14.9411 121.333 15.0191 121.333 15.2488C121.333 15.3267 121.362 15.4018 121.415 15.4589C121.468 15.516 121.541 15.5509 121.618 15.5565L122.785 15.5699C122.987 15.5696 123.185 15.63 123.353 15.7433C123.52 15.8566 123.65 16.0176 123.726 16.2055V14.1293L123.32 14.9411H121.67Z" fill="white"/>
<path d="M167.523 0H138.644C137.647 0 136.838 0.808711 136.838 1.80631V21.3144C136.838 22.312 137.647 23.1207 138.644 23.1207H167.523C168.52 23.1207 169.329 22.312 169.329 21.3144V1.80631C169.329 0.808711 168.52 0 167.523 0Z" fill="#F3F3F3"/>
<path fill-rule="evenodd" clip-rule="evenodd" d="M149.644 14.3843L150.562 8.70576H152.03L151.113 14.3843H149.644Z" fill="#00529B"/>
<path fill-rule="evenodd" clip-rule="evenodd" d="M156.436 8.84431C156.016 8.68241 155.569 8.60036 155.119 8.60235C153.667 8.60235 152.648 9.37662 152.641 10.4813C152.629 11.2973 153.372 11.7512 153.928 12.0232C154.483 12.2952 154.689 12.4821 154.689 12.729C154.689 13.1095 154.23 13.2847 153.808 13.2847C153.33 13.2981 152.857 13.1944 152.429 12.9827L152.236 12.8926L152.03 14.1674C152.552 14.371 153.107 14.4751 153.667 14.4745C155.209 14.4745 156.212 13.7136 156.224 12.5355C156.224 11.888 155.837 11.3924 154.991 10.9886C154.478 10.7283 154.156 10.553 154.156 10.2877C154.156 10.0224 154.43 9.80214 155.009 9.80214C155.386 9.79045 155.76 9.86463 156.104 10.0191L156.236 10.0791L156.436 8.85265V8.84431Z" fill="#00529B"/>
<path fill-rule="evenodd" clip-rule="evenodd" d="M158.386 12.3736C158.508 12.0398 158.973 10.7833 158.973 10.7833C158.973 10.7833 159.093 10.4496 159.167 10.241L159.269 10.7299C159.269 10.7299 159.547 12.0882 159.602 12.3736H158.386ZM160.2 8.70244H159.063C158.713 8.70244 158.448 8.80423 158.296 9.17301L156.115 14.3843H157.655L157.964 13.5333H159.849C159.891 13.7319 160.025 14.3843 160.025 14.3843H161.385L160.2 8.71078V8.70244Z" fill="#00529B"/>
<path fill-rule="evenodd" clip-rule="evenodd" d="M148.418 8.70576L146.979 12.5788L146.822 11.7928C146.555 10.8867 145.723 9.90222 144.785 9.41329L146.103 14.3793H147.655L149.963 8.70576H148.418Z" fill="#00529B"/>
<path fill-rule="evenodd" clip-rule="evenodd" d="M145.644 8.70576H143.283L143.258 8.8209C145.094 9.29148 146.322 10.4279 146.824 11.7928L146.309 9.18301C146.223 8.8209 145.965 8.71745 145.641 8.70576H145.644Z" fill="#F5AB00"/>
<path d="M169.396 17.1711H136.837V21.4081C136.837 22.3934 137.636 23.1921 138.621 23.1921H167.612C168.597 23.1921 169.396 22.3934 169.396 21.4081V17.1711Z" fill="#F5AB00"/>
<path d="M167.612 0H138.622C137.637 0 136.838 0.798726 136.838 1.78401V5.79802H169.396V1.78401C169.396 0.798726 168.597 0 167.612 0Z" fill="#00529B"/>
<path d="M213.194 0H184.316C183.318 0 182.509 0.808711 182.509 1.80631V21.3144C182.509 22.312 183.318 23.1207 184.316 23.1207H213.194C214.192 23.1207 215 22.312 215 21.3144V1.80631C215 0.808711 214.192 0 213.194 0Z" fill="#221F20"/>
<path d="M191.489 9.01411C191.723 8.93589 191.973 8.89386 192.233 8.89386C193.367 8.89386 194.314 9.6994 194.531 10.7705L196.138 10.4422C195.77 8.62304 194.161 7.2532 192.233 7.2532C191.791 7.2532 191.366 7.32511 190.969 7.45796L191.489 9.01411Z" fill="#FBC707"/>
<path d="M189.592 14.2243L190.68 12.9951C190.194 12.565 189.888 11.9377 189.888 11.2387C189.888 10.54 190.194 9.913 190.679 9.48335L189.591 8.25402C188.767 8.98421 188.247 10.0508 188.247 11.2387C188.247 12.4272 188.768 13.4941 189.592 14.2243Z" fill="#38A7E4"/>
<path d="M194.53 11.7094C194.313 12.7793 193.367 13.5836 192.233 13.5836C191.973 13.5836 191.722 13.5416 191.489 13.4629L190.968 15.0194C191.365 15.1524 191.791 15.2238 192.233 15.2238C194.16 15.2238 195.768 13.8569 196.138 12.0386L194.53 11.7094Z" fill="#EF3120"/>
<path d="M200.757 12.5619C200.757 12.5627 200.756 12.563 200.756 12.5637L200.71 12.5325C200.579 12.7464 200.373 12.9194 200.114 13.0315C199.621 13.2462 199.164 13.1911 198.835 12.9032L198.805 12.9488L198.805 12.9481L198.244 13.7856C198.383 13.882 198.533 13.9641 198.689 14.0294C199.308 14.2861 199.941 14.2741 200.564 14.0031C201.015 13.8081 201.368 13.51 201.61 13.1323L200.757 12.5619ZM199.01 10.4958C198.489 10.7197 198.22 11.2082 198.276 11.7813L200.482 10.8315C200.103 10.3854 199.609 10.2378 199.01 10.4958ZM197.545 13.047C197.492 12.9617 197.42 12.825 197.377 12.7247C197.123 12.1337 197.11 11.5221 197.325 10.9349C197.562 10.2908 198.014 9.79794 198.597 9.54694C199.331 9.23109 200.142 9.29369 200.845 9.71057C201.291 9.96668 201.608 10.3622 201.848 10.9216C201.879 10.9932 201.906 11.0701 201.932 11.1349L197.545 13.047Z" fill="white"/>
<path d="M203.466 8.31331V12.9697L204.19 13.2629L203.778 14.2225L202.98 13.8904C202.8 13.8125 202.678 13.6936 202.585 13.5594C202.497 13.4226 202.431 13.235 202.431 12.9825V8.31331H203.466Z" fill="white"/>
<path d="M205.341 11.7834C205.341 11.387 205.516 11.0314 205.793 10.7897L205.05 9.9618C204.547 10.4072 204.23 11.0574 204.229 11.7823C204.228 12.508 204.545 13.1589 205.048 13.6054L205.79 12.7763C205.515 12.534 205.34 12.1789 205.341 11.7834Z" fill="white"/>
<path d="M206.661 13.1048C206.514 13.1045 206.374 13.0802 206.242 13.0364L205.888 14.0914C206.13 14.1728 206.39 14.2169 206.66 14.2172C207.836 14.2183 208.818 13.3839 209.045 12.2747L207.955 12.0523C207.831 12.6534 207.298 13.1054 206.661 13.1048Z" fill="white"/>
<path d="M206.664 9.35178C206.394 9.35148 206.135 9.39532 205.892 9.47593L206.244 10.5316C206.376 10.4882 206.517 10.4639 206.663 10.4639C207.302 10.4646 207.835 10.9192 207.956 11.5221L209.046 11.3006C208.822 10.1901 207.841 9.35253 206.664 9.35178Z" fill="white"/>
</svg>
